<mxfile host="app.diagrams.net" modified="2021-08-20T09:08:09.159Z" agent="5.0 (Windows NT 10.0; Win64; x64) AppleWebKit/537.36 (KHTML, like Gecko) Chrome/92.0.4515.131 Safari/537.36" etag="0K763dJLDsyfk_1CmvOr" version="14.9.8" type="github">
  <diagram id="_nzaziCzkCIPV5Ofga6b" name="Page-1">
    <mxGraphModel dx="1422" dy="762" grid="1" gridSize="10" guides="1" tooltips="1" connect="1" arrows="1" fold="1" page="1" pageScale="1" pageWidth="827" pageHeight="1169" math="0" shadow="0">
      <root>
        <mxCell id="0" />
        <mxCell id="1" parent="0" />
        <mxCell id="g1WVNWGAaSRaNOZ6BHwa-1" value="" style="edgeStyle=orthogonalEdgeStyle;rounded=0;jumpSize=16;orthogonalLoop=1;jettySize=auto;html=1;strokeWidth=5;" edge="1" parent="1" source="g1WVNWGAaSRaNOZ6BHwa-2">
          <mxGeometry relative="1" as="geometry">
            <mxPoint x="614" y="401.5" as="targetPoint" />
          </mxGeometry>
        </mxCell>
        <mxCell id="g1WVNWGAaSRaNOZ6BHwa-2" value="" style="outlineConnect=0;dashed=0;verticalLabelPosition=bottom;verticalAlign=top;align=center;html=1;shape=mxgraph.aws3.queue;fillColor=#D9A741;gradientColor=none;" vertex="1" parent="1">
          <mxGeometry x="319" y="371.5" width="170" height="60" as="geometry" />
        </mxCell>
        <mxCell id="g1WVNWGAaSRaNOZ6BHwa-3" value="" style="edgeStyle=orthogonalEdgeStyle;rounded=0;orthogonalLoop=1;jettySize=auto;html=1;jumpSize=16;strokeWidth=5;" edge="1" parent="1" source="g1WVNWGAaSRaNOZ6BHwa-4" target="g1WVNWGAaSRaNOZ6BHwa-2">
          <mxGeometry relative="1" as="geometry" />
        </mxCell>
        <mxCell id="g1WVNWGAaSRaNOZ6BHwa-4" value="" style="outlineConnect=0;dashed=0;verticalLabelPosition=bottom;verticalAlign=top;align=center;html=1;shape=mxgraph.aws3.worker;fillColor=#D9A741;gradientColor=none;" vertex="1" parent="1">
          <mxGeometry x="149" y="370" width="60" height="63" as="geometry" />
        </mxCell>
        <mxCell id="g1WVNWGAaSRaNOZ6BHwa-5" value="" style="outlineConnect=0;dashed=0;verticalLabelPosition=bottom;verticalAlign=top;align=center;html=1;shape=mxgraph.aws3.worker;fillColor=#D9A741;gradientColor=none;" vertex="1" parent="1">
          <mxGeometry x="619" y="370" width="60" height="63" as="geometry" />
        </mxCell>
        <mxCell id="g1WVNWGAaSRaNOZ6BHwa-6" value="" style="edgeStyle=orthogonalEdgeStyle;rounded=0;jumpSize=16;orthogonalLoop=1;jettySize=auto;html=1;strokeWidth=5;" edge="1" parent="1" source="g1WVNWGAaSRaNOZ6BHwa-7" target="g1WVNWGAaSRaNOZ6BHwa-13">
          <mxGeometry relative="1" as="geometry" />
        </mxCell>
        <mxCell id="g1WVNWGAaSRaNOZ6BHwa-7" value="" style="outlineConnect=0;dashed=0;verticalLabelPosition=bottom;verticalAlign=top;align=center;html=1;shape=mxgraph.aws3.worker;fillColor=#fff2cc;strokeColor=#d6b656;" vertex="1" parent="1">
          <mxGeometry x="379" y="160" width="60" height="63" as="geometry" />
        </mxCell>
        <mxCell id="g1WVNWGAaSRaNOZ6BHwa-8" value="" style="edgeStyle=orthogonalEdgeStyle;rounded=0;jumpSize=16;orthogonalLoop=1;jettySize=auto;html=1;strokeWidth=5;" edge="1" parent="1" source="g1WVNWGAaSRaNOZ6BHwa-9" target="g1WVNWGAaSRaNOZ6BHwa-12">
          <mxGeometry relative="1" as="geometry" />
        </mxCell>
        <mxCell id="g1WVNWGAaSRaNOZ6BHwa-9" value="" style="outlineConnect=0;dashed=0;verticalLabelPosition=bottom;verticalAlign=top;align=center;html=1;shape=mxgraph.aws3.worker;fillColor=#D9A741;gradientColor=none;" vertex="1" parent="1">
          <mxGeometry x="149" y="160" width="60" height="63" as="geometry" />
        </mxCell>
        <mxCell id="g1WVNWGAaSRaNOZ6BHwa-10" value="" style="outlineConnect=0;dashed=0;verticalLabelPosition=bottom;verticalAlign=top;align=center;html=1;shape=mxgraph.aws3.worker;fillColor=#D9A741;gradientColor=none;" vertex="1" parent="1">
          <mxGeometry x="609" y="160" width="60" height="63" as="geometry" />
        </mxCell>
        <mxCell id="g1WVNWGAaSRaNOZ6BHwa-11" value="" style="edgeStyle=orthogonalEdgeStyle;rounded=0;jumpSize=16;orthogonalLoop=1;jettySize=auto;html=1;strokeWidth=5;" edge="1" parent="1" source="g1WVNWGAaSRaNOZ6BHwa-7" target="g1WVNWGAaSRaNOZ6BHwa-12">
          <mxGeometry relative="1" as="geometry" />
        </mxCell>
        <mxCell id="g1WVNWGAaSRaNOZ6BHwa-12" value="" style="whiteSpace=wrap;html=1;dashed=0;verticalAlign=top;fillColor=#D9A741;" vertex="1" parent="1">
          <mxGeometry x="279" y="161.5" width="30" height="60" as="geometry" />
        </mxCell>
        <mxCell id="g1WVNWGAaSRaNOZ6BHwa-13" value="" style="whiteSpace=wrap;html=1;dashed=0;verticalAlign=top;fillColor=#D9A741;" vertex="1" parent="1">
          <mxGeometry x="509" y="161.5" width="30" height="60" as="geometry" />
        </mxCell>
        <mxCell id="g1WVNWGAaSRaNOZ6BHwa-14" value="暂存" style="text;html=1;strokeColor=none;fillColor=none;align=center;verticalAlign=middle;whiteSpace=wrap;rounded=0;" vertex="1" parent="1">
          <mxGeometry x="274" y="130" width="40" height="20" as="geometry" />
        </mxCell>
        <mxCell id="g1WVNWGAaSRaNOZ6BHwa-15" value="暂存" style="text;html=1;strokeColor=none;fillColor=none;align=center;verticalAlign=middle;whiteSpace=wrap;rounded=0;" vertex="1" parent="1">
          <mxGeometry x="504" y="130" width="40" height="20" as="geometry" />
        </mxCell>
        <mxCell id="g1WVNWGAaSRaNOZ6BHwa-16" value="" style="shape=image;html=1;verticalAlign=top;verticalLabelPosition=bottom;labelBackgroundColor=#ffffff;imageAspect=0;aspect=fixed;image=https://cdn2.iconfinder.com/data/icons/essential-web-5/50/point-right-arrow-curve-forward-128.png;rotation=30;" vertex="1" parent="1">
          <mxGeometry x="236.41000000000003" y="50" width="142.59" height="142.59" as="geometry" />
        </mxCell>
        <mxCell id="g1WVNWGAaSRaNOZ6BHwa-17" value="" style="shape=image;html=1;verticalAlign=top;verticalLabelPosition=bottom;labelBackgroundColor=#ffffff;imageAspect=0;aspect=fixed;image=https://cdn2.iconfinder.com/data/icons/essential-web-5/50/point-right-arrow-curve-forward-128.png;rotation=30;" vertex="1" parent="1">
          <mxGeometry x="466.41" y="40" width="142.59" height="142.59" as="geometry" />
        </mxCell>
        <mxCell id="g1WVNWGAaSRaNOZ6BHwa-18" value="检查状态" style="text;html=1;strokeColor=none;fillColor=none;align=center;verticalAlign=middle;whiteSpace=wrap;rounded=0;" vertex="1" parent="1">
          <mxGeometry x="257.21" y="90" width="101" height="20" as="geometry" />
        </mxCell>
        <mxCell id="g1WVNWGAaSRaNOZ6BHwa-19" value="检查状态" style="text;html=1;strokeColor=none;fillColor=none;align=center;verticalAlign=middle;whiteSpace=wrap;rounded=0;" vertex="1" parent="1">
          <mxGeometry x="489.00000000000006" y="80" width="101" height="20" as="geometry" />
        </mxCell>
        <mxCell id="g1WVNWGAaSRaNOZ6BHwa-20" value="get" style="text;html=1;strokeColor=none;fillColor=none;align=center;verticalAlign=middle;whiteSpace=wrap;rounded=0;" vertex="1" parent="1">
          <mxGeometry x="319" y="223" width="40" height="20" as="geometry" />
        </mxCell>
        <mxCell id="g1WVNWGAaSRaNOZ6BHwa-21" value="send" style="text;html=1;strokeColor=none;fillColor=none;align=center;verticalAlign=middle;whiteSpace=wrap;rounded=0;" vertex="1" parent="1">
          <mxGeometry x="460" y="230" width="40" height="20" as="geometry" />
        </mxCell>
        <mxCell id="g1WVNWGAaSRaNOZ6BHwa-22" value="send" style="text;html=1;strokeColor=none;fillColor=none;align=center;verticalAlign=middle;whiteSpace=wrap;rounded=0;" vertex="1" parent="1">
          <mxGeometry x="217.20999999999998" y="223" width="40" height="20" as="geometry" />
        </mxCell>
        <mxCell id="g1WVNWGAaSRaNOZ6BHwa-23" value="get" style="text;html=1;strokeColor=none;fillColor=none;align=center;verticalAlign=middle;whiteSpace=wrap;rounded=0;" vertex="1" parent="1">
          <mxGeometry x="550" y="230" width="40" height="20" as="geometry" />
        </mxCell>
        <mxCell id="g1WVNWGAaSRaNOZ6BHwa-24" value="" style="whiteSpace=wrap;html=1;dashed=0;verticalAlign=top;fillColor=#D9A741;" vertex="1" parent="1">
          <mxGeometry x="459" y="438.5" width="30" height="60" as="geometry" />
        </mxCell>
        <mxCell id="g1WVNWGAaSRaNOZ6BHwa-25" value="" style="edgeStyle=orthogonalEdgeStyle;rounded=0;jumpSize=16;orthogonalLoop=1;jettySize=auto;html=1;strokeWidth=5;" edge="1" parent="1" source="g1WVNWGAaSRaNOZ6BHwa-10" target="g1WVNWGAaSRaNOZ6BHwa-13">
          <mxGeometry relative="1" as="geometry" />
        </mxCell>
        <mxCell id="g1WVNWGAaSRaNOZ6BHwa-26" value="time" style="text;html=1;strokeColor=none;fillColor=none;align=center;verticalAlign=middle;whiteSpace=wrap;rounded=0;" vertex="1" parent="1">
          <mxGeometry x="384" y="450" width="40" height="20" as="geometry" />
        </mxCell>
        <mxCell id="g1WVNWGAaSRaNOZ6BHwa-27" value="" style="whiteSpace=wrap;html=1;dashed=0;verticalAlign=top;fillColor=#D9A741;" vertex="1" parent="1">
          <mxGeometry x="359" y="360" width="30" height="70" as="geometry" />
        </mxCell>
        <mxCell id="g1WVNWGAaSRaNOZ6BHwa-28" value="" style="shape=image;html=1;verticalAlign=top;verticalLabelPosition=bottom;labelBackgroundColor=#ffffff;imageAspect=0;aspect=fixed;image=https://cdn2.iconfinder.com/data/icons/essential-web-5/50/point-right-arrow-curve-forward-128.png;rotation=30;" vertex="1" parent="1">
          <mxGeometry x="208.99999999999997" y="270" width="143.59" height="143.59" as="geometry" />
        </mxCell>
        <mxCell id="g1WVNWGAaSRaNOZ6BHwa-29" value="" style="verticalLabelPosition=bottom;outlineConnect=0;align=center;dashed=0;html=1;verticalAlign=top;shape=mxgraph.pid.misc.roller_conveyor;strokeColor=#B09500;fontColor=#000000;fillColor=#FFFFFF;" vertex="1" parent="1">
          <mxGeometry x="329" y="565" width="160" height="20" as="geometry" />
        </mxCell>
        <mxCell id="g1WVNWGAaSRaNOZ6BHwa-30" value="speed" style="text;html=1;strokeColor=none;fillColor=none;align=center;verticalAlign=middle;whiteSpace=wrap;rounded=0;" vertex="1" parent="1">
          <mxGeometry x="384" y="600" width="40" height="20" as="geometry" />
        </mxCell>
        <mxCell id="g1WVNWGAaSRaNOZ6BHwa-31" value="length" style="text;html=1;strokeColor=none;fillColor=none;align=center;verticalAlign=middle;whiteSpace=wrap;rounded=0;" vertex="1" parent="1">
          <mxGeometry x="384" y="630" width="40" height="20" as="geometry" />
        </mxCell>
        <mxCell id="g1WVNWGAaSRaNOZ6BHwa-32" value="&lt;span style=&quot;color: rgb(51 , 51 , 51) ; font-family: &amp;#34;arial&amp;#34; , &amp;#34;microsoft yahei&amp;#34; , &amp;#34;\\5fae软雅黑&amp;#34; , &amp;#34;\\5b8b体&amp;#34; , &amp;#34;malgun gothic&amp;#34; , &amp;#34;meiryo&amp;#34; , sans-serif ; font-size: 14px ; line-height: 21px ; text-align: left ; background-color: rgb(255 , 255 , 255)&quot;&gt;acceleration&lt;/span&gt;" style="text;html=1;strokeColor=none;fillColor=none;align=center;verticalAlign=middle;whiteSpace=wrap;rounded=0;" vertex="1" parent="1">
          <mxGeometry x="384" y="660" width="40" height="20" as="geometry" />
        </mxCell>
        <mxCell id="g1WVNWGAaSRaNOZ6BHwa-33" value="" style="edgeStyle=orthogonalEdgeStyle;rounded=0;orthogonalLoop=1;jettySize=auto;html=1;jumpSize=16;strokeWidth=5;" edge="1" parent="1" source="g1WVNWGAaSRaNOZ6BHwa-34">
          <mxGeometry relative="1" as="geometry">
            <mxPoint x="329" y="581.5" as="targetPoint" />
          </mxGeometry>
        </mxCell>
        <mxCell id="g1WVNWGAaSRaNOZ6BHwa-34" value="" style="outlineConnect=0;dashed=0;verticalLabelPosition=bottom;verticalAlign=top;align=center;html=1;shape=mxgraph.aws3.worker;fillColor=#D9A741;gradientColor=none;" vertex="1" parent="1">
          <mxGeometry x="159" y="550" width="60" height="63" as="geometry" />
        </mxCell>
        <mxCell id="g1WVNWGAaSRaNOZ6BHwa-35" value="send" style="text;html=1;strokeColor=none;fillColor=none;align=center;verticalAlign=middle;whiteSpace=wrap;rounded=0;" vertex="1" parent="1">
          <mxGeometry x="208.99999999999997" y="630" width="40" height="20" as="geometry" />
        </mxCell>
        <mxCell id="g1WVNWGAaSRaNOZ6BHwa-36" value="" style="whiteSpace=wrap;html=1;dashed=0;verticalAlign=top;fillColor=#D9A741;" vertex="1" parent="1">
          <mxGeometry x="249" y="550" width="30" height="60" as="geometry" />
        </mxCell>
        <mxCell id="g1WVNWGAaSRaNOZ6BHwa-37" value="send" style="text;html=1;strokeColor=none;fillColor=none;align=center;verticalAlign=middle;whiteSpace=wrap;rounded=0;" vertex="1" parent="1">
          <mxGeometry x="284" y="630" width="40" height="20" as="geometry" />
        </mxCell>
        <mxCell id="g1WVNWGAaSRaNOZ6BHwa-38" value="" style="edgeStyle=orthogonalEdgeStyle;rounded=0;jumpSize=16;orthogonalLoop=1;jettySize=auto;html=1;strokeWidth=5;startArrow=none;" edge="1" parent="1" source="g1WVNWGAaSRaNOZ6BHwa-41">
          <mxGeometry relative="1" as="geometry">
            <mxPoint x="489" y="581.5" as="targetPoint" />
          </mxGeometry>
        </mxCell>
        <mxCell id="g1WVNWGAaSRaNOZ6BHwa-39" value="" style="edgeStyle=orthogonalEdgeStyle;rounded=0;jumpSize=16;orthogonalLoop=1;jettySize=auto;html=1;strokeWidth=5;" edge="1" parent="1" source="g1WVNWGAaSRaNOZ6BHwa-40" target="g1WVNWGAaSRaNOZ6BHwa-41">
          <mxGeometry relative="1" as="geometry" />
        </mxCell>
        <mxCell id="g1WVNWGAaSRaNOZ6BHwa-40" value="" style="outlineConnect=0;dashed=0;verticalLabelPosition=bottom;verticalAlign=top;align=center;html=1;shape=mxgraph.aws3.worker;fillColor=#D9A741;gradientColor=none;" vertex="1" parent="1">
          <mxGeometry x="619" y="550" width="60" height="63" as="geometry" />
        </mxCell>
        <mxCell id="g1WVNWGAaSRaNOZ6BHwa-41" value="" style="whiteSpace=wrap;html=1;dashed=0;verticalAlign=top;fillColor=#D9A741;" vertex="1" parent="1">
          <mxGeometry x="544" y="551.5" width="30" height="60" as="geometry" />
        </mxCell>
        <mxCell id="g1WVNWGAaSRaNOZ6BHwa-42" value="get" style="text;html=1;strokeColor=none;fillColor=none;align=center;verticalAlign=middle;whiteSpace=wrap;rounded=0;" vertex="1" parent="1">
          <mxGeometry x="579" y="630" width="40" height="20" as="geometry" />
        </mxCell>
        <mxCell id="g1WVNWGAaSRaNOZ6BHwa-43" value="get" style="text;html=1;strokeColor=none;fillColor=none;align=center;verticalAlign=middle;whiteSpace=wrap;rounded=0;" vertex="1" parent="1">
          <mxGeometry x="499" y="630" width="40" height="20" as="geometry" />
        </mxCell>
        <mxCell id="g1WVNWGAaSRaNOZ6BHwa-44" value="" style="ellipse;whiteSpace=wrap;html=1;strokeColor=#d6b656;fillColor=#D9A741;" vertex="1" parent="1">
          <mxGeometry x="340" y="560" width="19" height="25" as="geometry" />
        </mxCell>
        <mxCell id="g1WVNWGAaSRaNOZ6BHwa-45" value="检查状态" style="text;html=1;strokeColor=none;fillColor=none;align=center;verticalAlign=middle;whiteSpace=wrap;rounded=0;" vertex="1" parent="1">
          <mxGeometry x="222.37999999999997" y="310" width="101" height="20" as="geometry" />
        </mxCell>
        <mxCell id="g1WVNWGAaSRaNOZ6BHwa-46" value="" style="whiteSpace=wrap;html=1;dashed=0;verticalAlign=top;fillColor=#D9A741;" vertex="1" parent="1">
          <mxGeometry x="179" y="440" width="30" height="60" as="geometry" />
        </mxCell>
        <mxCell id="g1WVNWGAaSRaNOZ6BHwa-47" value="get" style="text;html=1;strokeColor=none;fillColor=none;align=center;verticalAlign=middle;whiteSpace=wrap;rounded=0;" vertex="1" parent="1">
          <mxGeometry x="289" y="531.5" width="40" height="20" as="geometry" />
        </mxCell>
        <mxCell id="g1WVNWGAaSRaNOZ6BHwa-48" value="send" style="text;html=1;strokeColor=none;fillColor=none;align=center;verticalAlign=middle;whiteSpace=wrap;rounded=0;" vertex="1" parent="1">
          <mxGeometry x="187.20999999999998" y="531.5" width="40" height="20" as="geometry" />
        </mxCell>
        <mxCell id="g1WVNWGAaSRaNOZ6BHwa-49" value="" style="whiteSpace=wrap;html=1;dashed=0;verticalAlign=top;fillColor=#D9A741;" vertex="1" parent="1">
          <mxGeometry x="649" y="438.5" width="30" height="60" as="geometry" />
        </mxCell>
      </root>
    </mxGraphModel>
  </diagram>
</mxfile>
